<?xml version="1.0" encoding="UTF-8" standalone="no"?>
<!-- Created with Inkscape (http://www.inkscape.org/) -->

<svg
   sodipodi:docname="Tejado-logo.svg"
   inkscape:version="1.1 (c4e8f9e, 2021-05-24)"
   id="svg5"
   version="1.1"
   viewBox="0 0 63.735069 16.127556"
   height="16.127556mm"
   width="63.735069mm"
   xmlns:inkscape="http://www.inkscape.org/namespaces/inkscape"
   xmlns:sodipodi="http://sodipodi.sourceforge.net/DTD/sodipodi-0.dtd"
   xmlns="http://www.w3.org/2000/svg"
   xmlns:svg="http://www.w3.org/2000/svg">
  <sodipodi:namedview
     id="namedview7"
     pagecolor="#ffffff"
     bordercolor="#666666"
     borderopacity="1.0"
     inkscape:pageshadow="2"
     inkscape:pageopacity="0.0"
     inkscape:pagecheckerboard="0"
     inkscape:document-units="mm"
     showgrid="false"
     inkscape:zoom="2.6382709"
     inkscape:cx="142.7071"
     inkscape:cy="21.794578"
     inkscape:window-width="1399"
     inkscape:window-height="847"
     inkscape:window-x="0"
     inkscape:window-y="25"
     inkscape:window-maximized="0"
     inkscape:current-layer="layer1" />
  <defs
     id="defs2" />
  <g
     inkscape:label="Capa 1"
     id="layer1"
     transform="translate(-22.357987,-76.788185)"
     inkscape:groupmode="layer">
    <g
       aria-label="Villa de"
       transform="scale(0.83333895,1.1999919)"
       id="text1947-0"
       style="font-size:15.1734px;line-height:1.35;font-family:'Brush Script MT';-inkscape-font-specification:'Brush Script MT, Normal';stroke-width:0.379336">
      <path
         d="m 33.912299,65.888159 q 0,0.06668 -0.170405,0.340808 -0.170404,0.26672 -0.503804,0.792751 -0.3334,0.518622 -0.807569,1.3336 -0.474168,0.807568 -0.977973,1.79295 -0.577893,1.13356 -0.837204,1.785542 -0.251902,0.644573 -0.251902,1.111333 0,0.370444 0.392671,0.651982 0.474169,-0.370444 0.93352,-0.881657 0.459351,-0.511214 0.903884,-1.140969 0.451942,-0.629755 1.037244,-1.592911 0.592711,-0.963155 1.052062,-1.770724 -0.02223,-0.06668 -0.05186,-0.133359 -0.02223,-0.06668 -0.02223,-0.111134 0,-0.348217 0.140769,-0.651982 0.140769,-0.303764 0.348218,-0.592711 0.214857,-0.288946 0.637164,-0.814977 0.111133,-0.140769 0.274129,-0.140769 0.26672,0 0.26672,0.340809 0,0.340808 -0.281538,1.074288 -0.274129,0.726071 -0.814978,1.711453 -0.540848,0.985382 -1.348417,2.207848 -0.80016,1.215058 -1.815177,2.541248 -1.029836,1.341009 -1.474369,1.341009 -0.251902,0 -0.570484,-0.281538 -0.318582,-0.274129 -0.548258,-0.755706 -0.229675,-0.481578 -0.229675,-1.029835 0,-0.325991 0.13336,-0.837205 0.140769,-0.511213 0.429715,-1.222466 0.296356,-0.718662 0.6668,-1.415097 0.385262,-0.73348 0.674209,-1.215058 0.296355,-0.481577 0.6668,-1.066879 0.370444,-0.592711 0.370444,-0.644574 0,-0.111133 -0.148178,-0.111133 -0.429715,0 -1.148377,0.437124 -0.711253,0.437125 -1.859631,1.326191 -0.437124,0.340809 -0.548257,0.444533 -0.118543,0.09632 -0.118543,0.162996 0,0.08891 0.140769,0.08891 0.05927,0 0.40008,-0.04445 0.340809,-0.04445 0.540849,-0.04445 0.3334,0 0.3334,0.118542 0,0.103724 -0.140769,0.162996 -0.13336,0.05927 -0.377853,0.118542 -0.237085,0.05927 -0.651982,0.162995 -0.444534,0.118542 -0.940929,0.340809 -0.503804,0.222267 -0.577893,0.222267 -0.140769,0 -0.170405,-0.103725 -0.03704,-0.103724 -0.03704,-0.340809 0,-1.052061 0.348218,-1.622546 0.348217,-0.577893 1.244693,-1.200239 1.022426,-0.711253 1.955946,-1.178013 0.933519,-0.474169 1.607728,-0.689027 0.681618,-0.222266 1.0002,-0.222266 0.311173,0 0.614937,0.400079 0.311174,0.40008 0.311174,0.844614 z"
         id="path970" />
      <path
         d="m 38.013117,68.614629 q -0.185222,0 -0.355626,-0.140769 -0.162996,-0.140769 -0.162996,-0.355627 0,-0.325991 0.311174,-0.72607 0.311173,-0.40008 0.644573,-0.40008 0.222266,0 0.370444,0.140769 0.148178,0.133359 0.148178,0.392671 0,0.318582 -0.303765,0.703844 -0.303764,0.385262 -0.651982,0.385262 z m 0.503805,3.311772 v 0.540849 q -0.718662,0.926111 -1.341009,1.40028 -0.622346,0.466759 -1.059471,0.466759 -0.607528,0 -0.903884,-0.637164 -0.296355,-0.637164 -0.296355,-1.392871 0,-0.288946 0.05927,-0.548257 0.05927,-0.26672 0.140769,-0.437125 0.0815,-0.170404 0.303764,-0.533439 1.052062,-1.637364 1.926311,-1.637364 0.451942,0 0.451942,0.348217 0,0.237085 -0.296356,0.740889 -0.288946,0.503804 -0.518622,0.718662 -0.644573,0.622347 -0.844613,0.86684 -0.192631,0.244493 -0.192631,0.555666 0,0.26672 0.20004,0.444533 0.20004,0.177814 0.518622,0.177814 0.348218,0 0.763115,-0.251902 0.422307,-0.259311 1.089107,-0.822387 z"
         id="path972" />
      <path
         d="m 41.995393,71.844903 v 0.548258 q -1.548457,2.052262 -2.519021,2.052262 -0.526031,0 -0.829795,-0.570485 -0.296356,-0.577893 -0.296356,-1.511412 0,-0.755707 0.355627,-1.792951 0.355626,-1.044653 0.948337,-2.111533 0.60012,-1.074288 1.237284,-1.867039 0.644573,-0.80016 1.192831,-1.118742 0.222267,-0.13336 0.348218,-0.13336 0.155586,0 0.207449,0.140769 0.05186,0.13336 0.05186,0.46676 0,1.029835 -0.837204,2.533839 -0.837205,1.496595 -2.3338,3.05987 -0.07409,0.385262 -0.07409,0.592711 0,0.474169 0.20004,0.770524 0.207449,0.296356 0.570485,0.296356 0.185222,0 0.40008,-0.140769 0.214857,-0.148178 0.451942,-0.363036 0.237084,-0.214857 0.92611,-0.852022 z m -2.215257,-1.333599 q 0.385262,-0.377853 0.740889,-0.859431 0.363035,-0.481578 0.681618,-1.029835 0.318582,-0.548258 0.496395,-0.985382 0.185222,-0.437125 0.185222,-0.659391 0,-0.170405 -0.118542,-0.170405 -0.04445,0 -0.170404,0.0815 -0.451943,0.370445 -1.015018,1.452142 -0.563075,1.074289 -0.80016,2.170804 z"
         id="path974" />
      <path
         d="m 45.462753,71.844903 v 0.548258 q -1.548457,2.052262 -2.519021,2.052262 -0.526031,0 -0.829796,-0.570485 -0.296355,-0.577893 -0.296355,-1.511412 0,-0.755707 0.355626,-1.792951 0.355627,-1.044653 0.948338,-2.111533 0.60012,-1.074288 1.237284,-1.867039 0.644573,-0.80016 1.192831,-1.118742 0.222266,-0.13336 0.348217,-0.13336 0.155587,0 0.207449,0.140769 0.05186,0.13336 0.05186,0.46676 0,1.029835 -0.837204,2.533839 -0.837204,1.496595 -2.333799,3.05987 -0.07409,0.385262 -0.07409,0.592711 0,0.474169 0.20004,0.770524 0.207449,0.296356 0.570484,0.296356 0.185222,0 0.40008,-0.140769 0.214858,-0.148178 0.451942,-0.363036 0.237085,-0.214857 0.926111,-0.852022 z m -2.215257,-1.333599 q 0.385262,-0.377853 0.740889,-0.859431 0.363035,-0.481578 0.681617,-1.029835 0.318582,-0.548258 0.496396,-0.985382 0.185222,-0.437125 0.185222,-0.659391 0,-0.170405 -0.118542,-0.170405 -0.04445,0 -0.170405,0.0815 -0.451942,0.370445 -1.015017,1.452142 -0.563076,1.074289 -0.80016,2.170804 z"
         id="path976" />
      <path
         d="m 46.255504,70.60021 q 1.126151,-1.022426 2.185622,-1.518821 1.059471,-0.496396 1.637364,-0.496396 0.155587,0 0.288947,0.13336 0.13336,0.125951 0.207448,0.296356 0.0815,0.170404 0.0815,0.251902 0,0.13336 -0.103724,0.20004 -0.103725,0.05927 -0.363036,0.148178 0.05186,0.118542 0.13336,0.303764 0.0815,0.185222 0.125951,0.303764 0.04445,0.111134 0.04445,0.20004 0,0.177813 -0.363036,0.6668 -0.355626,0.481578 -0.503804,0.711253 -0.140769,0.229676 -0.140769,0.563076 0,0.548257 0.503804,0.548257 0.518622,0 1.622547,-0.970564 v 0.451942 q -1.874449,2.081897 -2.682017,2.081897 -0.288947,0 -0.414898,-0.192631 -0.118542,-0.185222 -0.118542,-0.555666 0,-0.585302 0.422306,-1.696635 -1.081697,1.200239 -1.607728,1.711452 -0.526031,0.503805 -0.86684,0.503805 -0.162995,0 -0.407489,-0.281538 -0.244493,-0.281538 -0.437124,-0.726071 -0.185222,-0.451942 -0.185222,-0.93352 0,-0.348217 0.06668,-0.577893 0.06668,-0.237084 0.259311,-0.481577 0.192631,-0.244494 0.614937,-0.644574 z m 3.548857,-0.814977 q -1.92631,0.881657 -2.748697,1.496595 -0.814977,0.614938 -0.814977,1.26692 0,0.237084 0.0815,0.392671 0.0815,0.148177 0.222267,0.148177 0.0815,0 0.288947,-0.103724 0.777933,-0.459351 1.422506,-1.192831 0.644573,-0.740888 1.548457,-2.007808 z"
         id="path978" />
      <path
         d="m 59.206237,71.941219 q -0.651982,0.740889 -1.170604,1.259511 -0.511213,0.518622 -0.837204,0.777933 -0.318582,0.251902 -0.437124,0.251902 -0.192632,0 -0.437125,-0.311173 -0.237084,-0.311174 -0.407489,-0.792751 -0.170404,-0.481578 -0.170404,-0.977973 0,-0.718662 0.696435,-1.444733 0.696436,-0.73348 1.585502,-1.215058 0.889067,-0.481577 1.3336,-0.481577 0.363035,0 0.711253,0.459351 0.570484,-1.192831 1.081697,-2.118942 0.518622,-0.926111 0.86684,-1.378053 0.348218,-0.451942 0.496395,-0.451942 0.162996,0 0.296356,0.162996 0.140769,0.155586 0.140769,0.355626 0,0.385262 -0.563076,1.326191 -0.563075,0.93352 -1.111333,1.822586 -0.548257,0.889067 -0.940928,1.755906 -0.392671,0.859431 -0.392671,1.592911 0,0.6668 0.429715,0.6668 0.259311,0 0.651982,-0.288947 0.392671,-0.296355 1.118742,-0.985382 v 0.540849 q -1.600319,2.067079 -2.467159,2.067079 -0.348218,0 -0.503804,-0.26672 -0.148178,-0.26672 -0.148178,-0.79275 0,-0.711254 0.177813,-1.53364 z m 0.548258,-1.807768 q -0.659391,0.222266 -1.548458,0.718662 -0.889066,0.488986 -1.074288,0.674208 -0.162996,0.148178 -0.288947,0.555667 -0.125951,0.407489 -0.125951,0.614937 0,0.125951 0.07409,0.207449 0.07409,0.0815 0.185222,0.0815 0.103725,0 0.237085,-0.08891 0.13336,-0.08891 0.422306,-0.348217 0.296356,-0.259311 0.385262,-0.3334 0.125951,-0.111134 0.555667,-0.474169 0.437124,-0.370444 0.637164,-0.577893 0.20004,-0.207449 0.340809,-0.459351 0.140769,-0.259311 0.20004,-0.570484 z"
         id="path980" />
      <path
         d="m 63.347804,72.193121 v 0.185222 q 0,0.437125 0.214858,0.681618 0.214858,0.244493 0.563076,0.244493 0.363035,0 0.748297,-0.170404 0.392671,-0.170405 0.777933,-0.451942 0.385262,-0.281538 0.940929,-0.755707 v 0.451942 q -0.837204,1.007609 -1.570684,1.548458 -0.73348,0.533439 -1.489186,0.533439 -0.659391,0 -1.044653,-0.511213 -0.385262,-0.511213 -0.385262,-1.400279 0,-0.777933 0.363035,-1.407689 0.363035,-0.637164 1.185422,-1.341008 0.563075,-0.481578 1.118742,-0.726071 0.555666,-0.244493 0.992791,-0.244493 0.348217,0 0.548257,0.162995 0.207449,0.155587 0.207449,0.474169 0,0.46676 -0.348218,0.93352 -0.348217,0.459351 -1.066879,0.918701 -0.711254,0.451943 -1.755907,0.874249 z m 0.07409,-0.481578 q 0.6668,-0.259311 1.140969,-0.644573 0.474169,-0.385262 0.696435,-0.733479 0.229676,-0.355627 0.229676,-0.518623 0,-0.170404 -0.155587,-0.170404 -0.13336,0 -0.437124,0.170404 -0.296356,0.170405 -0.607529,0.444534 -0.303764,0.274128 -0.548258,0.644573 -0.244493,0.370444 -0.318582,0.807568 z"
         id="path982" />
    </g>
    <g
       aria-label="Tejado"
       transform="scale(0.833339,1.19999)"
       id="text70672"
       style="font-size:15.1734px;line-height:1.35;font-family:'Brush Script MT';-inkscape-font-specification:'Brush Script MT, Normal';fill:#1c3ed3;stroke-width:0.379336">
      <path
         d="m 74.905302,72.451535 0.244493,0.185222 q -0.09632,0.207449 -0.185222,0.363035 -0.08891,0.155587 -0.214858,0.377854 -0.125951,0.222266 -0.192631,0.3334 -0.555666,0.970564 -1.044653,0.970564 -0.207449,0 -0.355626,-0.162996 -0.148178,-0.162995 -0.148178,-0.444533 0,-0.40008 0.281538,-1.096515 0.288946,-0.696436 0.881657,-1.711453 0.60012,-1.022426 1.504004,-2.311573 0.903884,-1.289146 2.037444,-2.719061 -0.651982,-0.09632 -1.548457,-0.09632 -1.029836,0 -2.296755,0.229676 -1.259511,0.229675 -2.20044,0.53344 -0.933519,0.296355 -0.933519,0.437124 0,0.05186 0.03704,0.07409 0.03705,0.01482 0.118542,0.02963 0.08891,0.0074 0.222267,0.02223 0.86684,0.118542 0.86684,0.26672 0,0.07409 -0.377854,0.07409 -0.377853,-0.0074 -0.911293,-0.0074 -0.422306,0 -0.614937,-0.02964 -0.185222,-0.03704 -0.251902,-0.125951 -0.05927,-0.09632 -0.05927,-0.288946 0,-0.125951 0.07409,-0.548258 0.140769,-0.785342 0.429716,-1.259511 0.296355,-0.474168 0.896475,-0.770524 0.607529,-0.303764 1.667,-0.481577 1.778132,-0.303765 2.941328,-0.303765 0.859431,0 1.355826,0.07409 0.496395,0.06668 0.726071,0.20004 0.237084,0.13336 0.296355,0.26672 0.06668,0.125951 0.170405,0.444533 l 0.229675,0.681618 q 0.02223,0.06668 0.03705,0.111133 0.01482,0.03704 0.02223,0.0815 0.01482,0.04445 0.01482,0.0815 0,0.288946 -0.13336,0.518622 -0.125951,0.229675 -0.474169,0.689026 -0.340808,0.459351 -0.503804,0.718662 -1.911493,3.104324 -2.607928,4.59351 z"
         id="path825" />
      <path
         d="m 78.502316,71.858824 v 0.185222 q 0,0.437124 0.214858,0.681618 0.214857,0.244493 0.563075,0.244493 0.363035,0 0.748298,-0.170404 0.392671,-0.170405 0.777933,-0.451943 0.385262,-0.281537 0.940928,-0.755706 v 0.451942 q -0.837204,1.007609 -1.570684,1.548457 -0.733479,0.53344 -1.489186,0.53344 -0.659391,0 -1.044653,-0.511213 -0.385262,-0.511213 -0.385262,-1.40028 0,-0.777933 0.363035,-1.407688 0.363036,-0.637164 1.185422,-1.341008 0.563076,-0.481578 1.118742,-0.726071 0.555667,-0.244494 0.992791,-0.244494 0.348218,0 0.548258,0.162996 0.207448,0.155587 0.207448,0.474169 0,0.466759 -0.348217,0.933519 -0.348218,0.459351 -1.06688,0.918702 -0.711253,0.451942 -1.755906,0.874249 z m 0.07409,-0.481578 q 0.6668,-0.259311 1.140968,-0.644573 0.474169,-0.385262 0.696436,-0.73348 0.229675,-0.355626 0.229675,-0.518622 0,-0.170404 -0.155586,-0.170404 -0.13336,0 -0.437125,0.170404 -0.296355,0.170405 -0.607528,0.444534 -0.303765,0.274128 -0.548258,0.644573 -0.244493,0.370444 -0.318582,0.807568 z"
         id="path827" />
      <path
         d="m 86.966968,66.42811 q 0,0.222267 -0.170404,0.622346 -0.185222,0.540849 -0.3334,0.718662 -0.140769,0.177814 -0.437124,0.177814 -0.637165,0 -0.637165,-0.422307 0,-0.3334 0.392671,-0.955746 0.207449,-0.3334 0.3334,-0.407489 0.125951,-0.0815 0.407489,-0.0815 0.444533,0 0.444533,0.348218 z m -4.749096,3.837803 0.207449,-0.585302 1.370644,-0.622346 q 1.222466,-0.577893 1.770724,-0.577893 0.429715,0 0.429715,0.392671 0,0.140768 -0.118542,0.459351 -0.111133,0.311173 -0.385262,0.896475 -0.26672,0.585302 -0.622347,1.333599 -0.355626,0.740889 -0.740888,1.526231 0.555666,-0.377853 0.970564,-0.696435 0.422306,-0.325991 0.985382,-0.814978 l 0.01482,0.526031 q -1.422507,1.229875 -2.637564,2.444933 -0.73348,1.429915 -1.296555,2.155986 -0.563076,0.726071 -0.844613,0.726071 -0.20004,0 -0.20004,-0.392671 0,-0.481578 0.214857,-0.970564 0.214858,-0.481578 0.659391,-1.022427 0.444534,-0.53344 1.052062,-1.089106 0.940929,-1.852222 1.326191,-2.689426 0.392671,-0.844613 0.392671,-1.103924 0,-0.162996 -0.155587,-0.162996 -0.0815,0 -1.103924,0.481578 -1.022426,0.474169 -1.274328,0.474169 -0.155587,0 -0.155587,-0.170405 0,-0.111133 0.140769,-0.518622 z"
         id="path829" />
      <path
         d="m 86.907698,70.265913 q 1.12615,-1.022426 2.185621,-1.518821 1.059471,-0.496396 1.637364,-0.496396 0.155587,0 0.288947,0.13336 0.13336,0.125951 0.207448,0.296356 0.0815,0.170404 0.0815,0.251902 0,0.13336 -0.103724,0.20004 -0.103725,0.05927 -0.363036,0.148177 0.05186,0.118543 0.13336,0.303765 0.0815,0.185222 0.125951,0.303764 0.04445,0.111133 0.04445,0.20004 0,0.177813 -0.363036,0.6668 -0.355626,0.481577 -0.503804,0.711253 -0.140769,0.229675 -0.140769,0.563075 0,0.548258 0.503804,0.548258 0.518622,0 1.622547,-0.970564 v 0.451942 q -1.874449,2.081897 -2.682017,2.081897 -0.288947,0 -0.414898,-0.192631 -0.118542,-0.185222 -0.118542,-0.555667 0,-0.585302 0.422306,-1.696635 -1.081697,1.20024 -1.607728,1.711453 -0.526031,0.503805 -0.86684,0.503805 -0.162995,0 -0.407489,-0.281538 -0.244493,-0.281538 -0.437124,-0.726071 -0.185222,-0.451942 -0.185222,-0.93352 0,-0.348217 0.06668,-0.577893 0.06668,-0.237084 0.259311,-0.481578 0.192631,-0.244493 0.614938,-0.644573 z m 3.548856,-0.814977 q -1.92631,0.881657 -2.748697,1.496595 -0.814977,0.614937 -0.814977,1.266919 0,0.237085 0.0815,0.392671 0.0815,0.148178 0.222266,0.148178 0.0815,0 0.288947,-0.103724 0.777933,-0.459351 1.422506,-1.192831 0.644573,-0.740889 1.548457,-2.007808 z"
         id="path831" />
      <path
         d="m 95.590913,71.606922 q -0.651982,0.740888 -1.170604,1.259511 -0.511213,0.518622 -0.837204,0.777933 -0.318582,0.251902 -0.437124,0.251902 -0.192632,0 -0.437125,-0.311173 -0.237084,-0.311174 -0.407489,-0.792751 -0.170404,-0.481578 -0.170404,-0.977973 0,-0.718662 0.696435,-1.444733 0.696436,-0.73348 1.585502,-1.215058 0.889067,-0.481577 1.3336,-0.481577 0.363035,0 0.711253,0.459351 0.570484,-1.192831 1.081697,-2.118942 0.518622,-0.926111 0.86684,-1.378053 0.348218,-0.451942 0.496395,-0.451942 0.162996,0 0.296356,0.162996 0.140769,0.155586 0.140769,0.355626 0,0.385262 -0.563076,1.326191 -0.563075,0.93352 -1.111333,1.822586 -0.548257,0.889066 -0.940928,1.755906 -0.392671,0.859431 -0.392671,1.592911 0,0.6668 0.429715,0.6668 0.259311,0 0.651982,-0.288947 0.392671,-0.296356 1.118742,-0.985382 v 0.540849 q -1.600319,2.067079 -2.467159,2.067079 -0.348218,0 -0.503804,-0.26672 -0.148178,-0.26672 -0.148178,-0.792751 0,-0.711253 0.177813,-1.533639 z m 0.548258,-1.807769 q -0.659391,0.222267 -1.548458,0.718662 -0.889066,0.488987 -1.074288,0.674209 -0.162996,0.148178 -0.288947,0.555667 -0.125951,0.407488 -0.125951,0.614937 0,0.125951 0.07409,0.207449 0.07409,0.0815 0.185222,0.0815 0.103725,0 0.237085,-0.08891 0.13336,-0.08891 0.422306,-0.348218 0.296356,-0.259311 0.385262,-0.333399 0.125951,-0.111134 0.555667,-0.474169 0.437124,-0.370444 0.637164,-0.577893 0.20004,-0.207449 0.340809,-0.459351 0.140769,-0.259311 0.20004,-0.570485 z"
         id="path833" />
      <path
         d="m 103.31097,71.577286 v 0.496396 q -0.48898,0.444533 -0.78534,0.592711 -0.29635,0.148177 -0.85202,0.118542 -0.96316,1.140968 -1.696636,1.140968 -0.414898,0 -0.755707,-0.274128 -0.340809,-0.274129 -0.548257,-0.748298 -0.20004,-0.474169 -0.20004,-1.059471 0,-0.474169 0.311173,-1.052062 0.318582,-0.577893 0.814977,-1.074288 0.5038,-0.503805 1.07429,-0.807569 0.57048,-0.311173 1.05947,-0.311173 0.34822,0 0.54826,0.111133 0.20004,0.103725 0.20004,0.296356 0,0.148177 -0.17041,0.340808 0.28154,0.05927 0.38527,0.20004 0.10372,0.13336 0.10372,0.496396 0,0.355626 -0.1704,0.896475 -0.163,0.540849 -0.45195,1.015017 l 0.13336,0.13336 h 0.11114 q 0.12595,0 0.24449,-0.05927 0.12595,-0.06668 0.22227,-0.13336 0.0963,-0.07409 0.4223,-0.318583 z m -1.52623,-1.948537 q -0.61494,0.370444 -1.05206,0.674209 -0.43712,0.296355 -0.740889,0.607528 -0.303764,0.303765 -0.407488,0.614938 -0.185222,0.829795 -0.185222,0.896475 0,0.488987 0.681619,0.488987 0.31858,0 1.06688,-0.548258 -0.12595,-0.348217 -0.12595,-0.6668 0,-0.466759 0.19263,-0.948337 0.19263,-0.488987 0.57048,-1.118742 z"
         id="path835" />
    </g>
  </g>
</svg>
